<svg width="64" height="64" viewBox="0 0 64 64" fill="none" xmlns="http://www.w3.org/2000/svg">
  <path d="M24 17C15.1634 17 8 23.268 8 31C8 35.1617 10.0818 38.8995 13.3884 41.4641L12 49L19.4523 45.2736C20.9159 45.7445 22.4401 46 24 46C32.8366 46 40 39.732 40 32C40 24.268 32.8366 17 24 17Z" stroke="#4C565D" stroke-width="4" stroke-linejoin="round"/>
  <path d="M41 23C48.1797 23 54 28.3027 54 34.8421C54 38.0668 52.5849 40.9905 50.2821 43.1247L51 49L45.4181 46.2497C44.0076 46.6571 42.5256 46.8816 41 46.8816C33.8203 46.8816 28 41.5788 28 35.0395C28 28.5001 33.8203 23 41 23Z" stroke="#4C565D" stroke-width="4" stroke-linejoin="round"/>
  <circle cx="19.5" cy="31" r="2.5" fill="#4C565D"/>
  <circle cx="28.5" cy="31" r="2.5" fill="#4C565D"/>
  <circle cx="37.5" cy="34.5" r="2.5" fill="#4C565D"/>
  <circle cx="44.5" cy="34.5" r="2.5" fill="#4C565D"/>
</svg>
